<svg width="1200" height="800" viewBox="0 0 1200 800" fill="none" xmlns="http://www.w3.org/2000/svg">
  <rect width="1200" height="800" rx="48" fill="#F3F8F3"/>
  <circle cx="600" cy="320" r="196" fill="#DCEFD9"/>
  <path d="M466 360C466 299.782 514.782 251 575 251H660C720.218 251 769 299.782 769 360V412H466V360Z" fill="#2E7D32"/>
  <path d="M504 292L455 386H540L575 326L615 386H710L670 292H504Z" fill="#1F5C25"/>
  <circle cx="515" cy="497" r="92" stroke="#2E7D32" stroke-width="28"/>
  <circle cx="713" cy="497" r="92" stroke="#2E7D32" stroke-width="28"/>
  <path d="M543 360H660" stroke="#E8F5E9" stroke-width="18" stroke-linecap="round"/>
  <path d="M631 270V328" stroke="#E8F5E9" stroke-width="18" stroke-linecap="round"/>
  <path d="M702 364L762 292" stroke="#E8F5E9" stroke-width="18" stroke-linecap="round"/>
  <path d="M604 326C608 308 619 294 637 286" stroke="#E8F5E9" stroke-width="18" stroke-linecap="round"/>
  <path d="M588 386H688" stroke="#E8F5E9" stroke-width="18" stroke-linecap="round"/>
  <path d="M400 560H800" stroke="#B9D8B8" stroke-width="18" stroke-linecap="round"/>
  <path d="M408 620H792" stroke="#D4E8D3" stroke-width="12" stroke-linecap="round"/>
  <text x="600" y="690" fill="#2E7D32" font-family="Arial, sans-serif" font-size="36" font-weight="700" text-anchor="middle">MotoCare</text>
</svg>
