<svg width="400" height="300" viewBox="0 0 400 300" fill="none" xmlns="http://www.w3.org/2000/svg">
  <rect width="400" height="300" fill="white"/>
  <g fill="#49A61B">
    <circle cx="96" cy="218" r="38" fill="white" stroke="#49A61B" stroke-width="14"/>
    <circle cx="318" cy="218" r="38" fill="white" stroke="#49A61B" stroke-width="14"/>

    <path d="M170 188L152 166L160 156L186 174L170 188Z"/>
    <path d="M152 166L142 150L124 134L110 114L96 122L112 148L126 160L138 176L152 166Z"/>

    <path d="M182 188C180 164 190 144 210 128C229 114 253 108 278 108C293 108 306 110 318 116C327 120 336 130 340 142C343 151 344 160 344 170C344 180 342 189 336 196L328 208L184 208C182 202 182 195 182 188Z"/>

    <path d="M290 126L304 110L318 112L312 126L324 138L316 146L302 136L290 126Z"/>
    <path d="M306 108L316 96L336 100L332 116L318 112L306 108Z"/>
    <path d="M324 112L340 114L348 126L338 132L328 126L324 112Z"/>

    <path d="M122 88L138 72L156 76L150 92L164 108L152 120L136 108L122 88Z"/>
    <path d="M118 72L136 56L154 60L148 76L132 76L118 72Z"/>
    <path d="M100 68L108 54L124 48L132 60L126 72L114 80L100 68Z"/>
    <path d="M78 76L92 60L106 62L108 80L96 92L82 88L78 76Z"/>

    <path d="M86 58L70 46L74 36L90 40L98 52L86 58Z"/>
    <path d="M66 38L78 26L94 30L92 44L76 44L66 38Z"/>
    <path d="M58 64L44 54L50 40L62 42L68 56L58 64Z"/>

    <path d="M190 212L212 156H246L230 192H254L238 230H188L190 212Z"/>

    <path d="M84 190H108C112 190 116 193 116 197V219C116 223 112 226 108 226H84C80 226 76 223 76 219V197C76 193 80 190 84 190Z" fill="white"/>
    <path d="M296 190H320C324 190 328 193 328 197V219C328 223 324 226 320 226H296C292 226 288 223 288 219V197C288 193 292 190 296 190Z" fill="white"/>
  </g>
</svg>
